<?xml version="1.0" encoding="utf-8"?>
<svg version="1.1" xmlns:xlink="http://www.w3.org/1999/xlink" width="12px" height="12px" viewBox="196 489.5  12 12" xmlns="http://www.w3.org/2000/svg">
  <path d="M 202 489.5  C 205.36 489.5  208 492.14  208 495.5  C 208 498.86  205.36 501.5  202 501.5  C 198.64 501.5  196 498.86  196 495.5  C 196 492.14  198.64 489.5  202 489.5  Z " fill-rule="nonzero" fill="#ffffff" stroke="none" />
  <path d="M 202 490  C 205.08 490  207.5 492.42  207.5 495.5  C 207.5 498.58  205.08 501  202 501  C 198.92 501  196.5 498.58  196.5 495.5  C 196.5 492.42  198.92 490  202 490  Z " stroke-width="1" stroke="#797979" fill="none" />
  <path d="M 202 498.5  C 200.32 498.5  199 497.18  199 495.5  C 199 493.82  200.32 492.5  202 492.5  C 203.68 492.5  205 493.82  205 495.5  C 205 497.18  203.68 498.5  202 498.5  " fill-rule="nonzero" fill="#797979" stroke="none" />
</svg>