<?xml version="1.0" encoding="utf-8"?>
<svg version="1.1" xmlns:xlink="http://www.w3.org/1999/xlink" width="12px" height="12px" viewBox="346 489.5  12 12" xmlns="http://www.w3.org/2000/svg">
  <path d="M 352 489.5  C 355.36 489.5  358 492.14  358 495.5  C 358 498.86  355.36 501.5  352 501.5  C 348.64 501.5  346 498.86  346 495.5  C 346 492.14  348.64 489.5  352 489.5  Z " fill-rule="nonzero" fill="#ffffff" stroke="none" />
  <path d="M 352 490  C 355.08 490  357.5 492.42  357.5 495.5  C 357.5 498.58  355.08 501  352 501  C 348.92 501  346.5 498.58  346.5 495.5  C 346.5 492.42  348.92 490  352 490  Z " stroke-width="1" stroke="#797979" fill="none" />
  <path d="M 352 498.5  C 350.32 498.5  349 497.18  349 495.5  C 349 493.82  350.32 492.5  352 492.5  C 353.68 492.5  355 493.82  355 495.5  C 355 497.18  353.68 498.5  352 498.5  " fill-rule="nonzero" fill="#797979" stroke="none" />
</svg>